<svg width="82" height="46" viewBox="0 0 82 46" fill="none" xmlns="http://www.w3.org/2000/svg">
<path d="M13.5152 45.5051H11.1404C8.03224 45.5051 5.51776 43.0954 5.51776 40.1618V31.3611C5.51776 30.6976 6.07653 30.1388 6.74008 30.1388C7.40362 30.1388 7.96239 30.6976 7.96239 31.3611V40.1618C7.96239 41.7683 9.39425 43.0605 11.1404 43.0605H13.5152C15.2614 43.0605 16.6932 41.7683 16.6932 40.1618V22.6652C16.6932 21.0588 15.2614 19.7666 13.5152 19.7666H11.1404C9.39425 19.7666 7.96239 21.0588 7.96239 22.6652C7.96239 23.3288 7.40362 23.8875 6.74008 23.8875C6.07653 23.8875 5.51776 23.3288 5.51776 22.6652C5.51776 19.7317 8.03224 17.322 11.1404 17.322H13.5152C16.6234 17.322 19.1379 19.7317 19.1379 22.6652V40.1618C19.1379 43.1303 16.6234 45.5051 13.5152 45.5051Z" fill="#D4145A"/>
<path d="M30.5294 22.9148C30.172 22.7205 29.7551 22.6233 29.2786 22.6233C28.6328 22.6233 28.1281 22.8615 27.7644 23.338C27.4008 23.8083 27.219 24.4509 27.219 25.266V29.8649H24.2471V20.2345H27.219V22.0214H27.2566C27.7268 20.7173 28.5732 20.0652 29.7958 20.0652C30.1093 20.0652 30.3539 20.1028 30.5294 20.1781V22.9148ZM40.4983 25.8961H34.216C34.3164 27.2943 35.1973 27.9933 36.8587 27.9933C37.9183 27.9933 38.8494 27.7425 39.6519 27.241V29.3852C38.7616 29.8617 37.6048 30.1 36.1816 30.1C34.6267 30.1 33.4198 29.6705 32.5608 28.8115C31.7019 27.9463 31.2724 26.7425 31.2724 25.2002C31.2724 23.6014 31.7363 22.3349 32.6643 21.4007C33.5922 20.4665 34.7333 19.9994 36.0876 19.9994C37.492 19.9994 38.5767 20.4163 39.3416 21.2502C40.1128 22.0841 40.4983 23.2158 40.4983 24.6453V25.8961ZM37.7428 24.0716C37.7428 22.6922 37.1848 22.0026 36.0688 22.0026C35.5923 22.0026 35.1784 22.2001 34.8273 22.5951C34.4825 22.9901 34.2725 23.4822 34.1972 24.0716H37.7428ZM50.2792 29.8649H47.4672V28.4824H47.4296C46.7838 29.5608 45.8277 30.1 44.5612 30.1C43.627 30.1 42.8903 29.8367 42.3511 29.31C41.8181 28.7771 41.5517 28.0686 41.5517 27.1845C41.5517 25.3161 42.6583 24.2377 44.8715 23.9493L47.486 23.6014C47.486 22.548 46.9155 22.0214 45.7744 22.0214C44.627 22.0214 43.5361 22.3631 42.5015 23.0465V20.8082C42.9153 20.595 43.4796 20.4069 44.1944 20.2439C44.9154 20.0809 45.5706 19.9994 46.16 19.9994C48.9061 19.9994 50.2792 21.3693 50.2792 24.1092V29.8649ZM47.486 25.9525V25.3036L45.7367 25.5293C44.7712 25.6547 44.2884 26.0905 44.2884 26.8366C44.2884 27.1751 44.4044 27.4541 44.6364 27.6736C44.8747 27.8868 45.1944 27.9933 45.5957 27.9933C46.1537 27.9933 46.6082 27.8021 46.9594 27.4197C47.3105 27.0309 47.486 26.5419 47.486 25.9525ZM67.9223 29.8649H64.9599V24.3725C64.9599 22.9744 64.4457 22.2753 63.4175 22.2753C62.9285 22.2753 62.5303 22.4853 62.2231 22.9054C61.9159 23.3255 61.7623 23.849 61.7623 24.476V29.8649H58.7904V24.3161C58.7904 22.9556 58.2857 22.2753 57.2763 22.2753C56.7684 22.2753 56.3609 22.4759 56.0537 22.8772C55.7527 23.2785 55.6022 23.8239 55.6022 24.5136V29.8649H52.6304V20.2345H55.6022V21.7392H55.6399C55.9471 21.2251 56.3766 20.8082 56.9283 20.4884C57.4863 20.1624 58.0945 19.9994 58.7528 19.9994C60.1133 19.9994 61.0444 20.5981 61.546 21.7957C62.2795 20.5981 63.3579 19.9994 64.7812 19.9994C66.8753 19.9994 67.9223 21.291 67.9223 23.8741V29.8649ZM71.7782 18.7109C71.2767 18.7109 70.866 18.5636 70.5462 18.2689C70.2265 17.968 70.0666 17.6012 70.0666 17.1686C70.0666 16.7234 70.2265 16.3598 70.5462 16.0776C70.866 15.7955 71.2767 15.6544 71.7782 15.6544C72.2861 15.6544 72.6968 15.7955 73.0103 16.0776C73.33 16.3598 73.4899 16.7234 73.4899 17.1686C73.4899 17.62 73.33 17.9899 73.0103 18.2783C72.6968 18.5667 72.2861 18.7109 71.7782 18.7109ZM73.2454 29.8649H70.2735V20.2345H73.2454V29.8649ZM81.5685 29.752C81.1296 29.984 80.4682 30.1 79.5841 30.1C77.49 30.1 76.443 29.0122 76.443 26.8366V22.4258H74.8818V20.2345H76.443V18.1561L79.4054 17.3096V20.2345H81.5685V22.4258H79.4054V26.3193C79.4054 27.3225 79.8036 27.8241 80.5998 27.8241C80.9133 27.8241 81.2362 27.7331 81.5685 27.5513V29.752Z" fill="#262525"/>
<path d="M20.2204 19.0332C20.2204 23.4685 16.6233 27.0656 12.188 27.0656C7.75274 27.0656 4.15564 23.4685 4.15564 19.0332C4.15564 14.598 7.75274 11.0009 12.188 11.0009C16.6233 11.0009 20.2204 14.598 20.2204 19.0332Z" fill="#D4145A"/>
<path d="M3.56176 11.1406C3.24745 11.1406 2.93314 11.0358 2.7236 10.7913C2.23467 10.3024 2.23467 9.53408 2.68868 9.08008C5.20316 6.49575 8.59072 5.09882 12.1878 5.09882C15.7151 5.09882 19.0677 6.49575 21.5822 8.97531C22.0711 9.46423 22.0711 10.2325 21.5822 10.7215C21.0933 11.2104 20.325 11.2104 19.836 10.7215C17.7756 8.661 15.0865 7.54345 12.1878 7.54345C9.25426 7.54345 6.49532 8.69592 4.43484 10.7913C4.19038 11.0009 3.87607 11.1406 3.56176 11.1406Z" fill="#D4145A"/>
<path d="M1.22196 7.05451C0.907646 7.05451 0.593336 6.94974 0.348873 6.70528C-0.140054 6.21635 -0.140054 5.44804 0.348873 4.95911C3.49197 1.74617 7.68277 0 12.1879 0C16.6231 0 20.779 1.71124 23.9221 4.85434C24.4111 5.34327 24.4111 6.11158 23.9221 6.60051C23.4332 7.08944 22.6649 7.08944 22.2109 6.60051C19.5218 3.91141 15.9596 2.44463 12.1879 2.44463C8.34632 2.44463 4.78414 3.94634 2.09504 6.67036C1.85058 6.91482 1.53627 7.05451 1.22196 7.05451Z" fill="#D4145A"/>
</svg>
