<svg width="34" height="34" viewBox="0 0 34 34" fill="none" xmlns="http://www.w3.org/2000/svg">
<circle cx="17" cy="17" r="17" fill="#E24C4B"/>
<path d="M20.6663 9.39062C20.4144 9.13867 20.0796 9 19.7236 9H14.2757C13.9196 9 13.585 9.13867 13.333 9.39062L9.39095 13.3327C9.13867 13.5843 9 13.9189 9 14.276C9.00163 15.2767 9.007 18.7227 9.0026 19.7233C9.0013 20.0807 9.13997 20.4167 9.39339 20.6696L13.333 24.6094C13.585 24.8613 13.9196 25 14.2757 25H19.7236C20.0796 25 20.4144 24.8613 20.6663 24.6094L24.6091 20.6667C24.861 20.415 24.9997 20.0801 24.9997 19.7236V14.2764C24.9997 13.9204 24.861 13.5853 24.6091 13.3333L20.6663 9.39062ZM23.6663 19.724L19.7236 23.6667H14.2757L10.3359 19.7271C10.3403 18.7236 10.335 15.2757 10.3333 14.2757L14.2757 10.3333H19.7236L23.6663 14.2764V19.724Z" fill="white"/>
<path d="M17.0001 11.6667C16.6401 11.6667 16.2975 11.8213 16.059 12.0913C15.8207 12.361 15.7101 12.7207 15.7533 13.0674L16.3375 18.4059C16.3744 18.744 16.6598 19 17.0001 19C17.3404 19 17.6258 18.744 17.6627 18.4056L18.2454 13.0777C18.2901 12.7207 18.1795 12.361 17.941 12.0913C17.7027 11.8213 17.3601 11.6667 17.0001 11.6667Z" fill="white"/>
<path d="M17 20.3333C16.4487 20.3333 16 20.782 16 21.3333C16 21.8846 16.4487 22.3333 17 22.3333C17.5513 22.3333 18 21.8846 18 21.3333C18 20.782 17.5513 20.3333 17 20.3333Z" fill="white"/>
</svg>
