<svg width="34" height="34" viewBox="0 0 34 34" fill="none" xmlns="http://www.w3.org/2000/svg">
<circle cx="17" cy="17" r="17" fill="#E24C4B"/>
<path d="M17 16.6875C16.8275 16.6875 16.6875 16.8275 16.6875 17C16.6875 17.1725 16.8275 17.3125 17 17.3125C17.1725 17.3125 17.3125 17.1725 17.3125 17C17.3125 16.8275 17.1725 16.6875 17 16.6875Z" fill="white"/>
<path d="M24.6875 16.6875H24.3675C24.329 15.8273 24.1316 14.9827 23.7786 14.1724C23.3987 13.3005 22.8587 12.5111 22.1738 11.8262C21.4889 11.1413 20.6995 10.6014 19.8276 10.2214C19.0173 9.86834 18.1727 9.67103 17.3125 9.63247V9.3125C17.3125 9.13994 17.1726 9 17 9C16.8274 9 16.6875 9.13994 16.6875 9.3125V9.63247C15.8273 9.67103 14.9827 9.86837 14.1724 10.2214C13.3005 10.6013 12.5111 11.1413 11.8262 11.8262C11.1413 12.5111 10.6014 13.3005 10.2214 14.1724C9.86834 14.9827 9.67103 15.8273 9.63247 16.6875H9.3125C9.13994 16.6875 9 16.8274 9 17C9 17.1726 9.13994 17.3125 9.3125 17.3125H9.63247C9.67103 18.1727 9.86837 19.0173 10.2214 19.8276C10.6013 20.6995 11.1413 21.4889 11.8262 22.1738C12.5111 22.8587 13.3005 23.3986 14.1724 23.7786C14.9827 24.1316 15.8273 24.329 16.6875 24.3675V24.6875C16.6875 24.8601 16.8274 25 17 25C17.1726 25 17.3125 24.8601 17.3125 24.6875V24.3675C18.1727 24.329 19.0173 24.1316 19.8276 23.7786C20.6995 23.3987 21.4889 22.8587 22.1738 22.1738C22.8587 21.4889 23.3986 20.6995 23.7786 19.8276C24.1316 19.0173 24.329 18.1727 24.3675 17.3125H24.6875C24.8601 17.3125 25 17.1726 25 17C25 16.8274 24.8601 16.6875 24.6875 16.6875ZM22.625 17.3125H23.7418C23.5712 20.6728 20.6728 23.5712 17.3125 23.7418V22.625C17.3125 22.4524 17.1726 22.3125 17 22.3125C16.8274 22.3125 16.6875 22.4524 16.6875 22.625V23.7418C13.3272 23.5712 10.4288 20.6728 10.2582 17.3125H11.375C11.5476 17.3125 11.6875 17.1726 11.6875 17C11.6875 16.8274 11.5476 16.6875 11.375 16.6875H10.2582C10.4288 13.3272 13.3272 10.4288 16.6875 10.2582V11.375C16.6875 11.5476 16.8274 11.6875 17 11.6875C17.1726 11.6875 17.3125 11.5476 17.3125 11.375V10.2582C20.6728 10.4288 23.5712 13.3272 23.7418 16.6875H22.625C22.4524 16.6875 22.3125 16.8274 22.3125 17C22.3125 17.1726 22.4524 17.3125 22.625 17.3125Z" fill="white"/>
<path d="M21.375 17.3125H19.8125V16.6561C20.5248 16.5109 21.0625 15.8796 21.0625 15.125C21.0625 14.9524 20.9226 14.8125 20.75 14.8125C20.5774 14.8125 20.4375 14.9524 20.4375 15.125C20.4375 15.5474 20.1566 15.9053 19.7718 16.0222C19.63 15.4101 19.1278 14.9348 18.5016 14.833C18.5414 14.728 18.5625 14.6157 18.5625 14.5C18.5625 14.0828 18.3999 13.6905 18.1047 13.3952C18.074 13.3646 18.0421 13.3355 18.0093 13.3077L18.471 12.846C18.593 12.7239 18.593 12.5261 18.471 12.404C18.3489 12.282 18.1511 12.282 18.029 12.404L17.434 12.999C17.294 12.9584 17.1488 12.9375 17 12.9375C16.8511 12.9375 16.7058 12.9584 16.5659 12.999L15.971 12.404C15.8489 12.282 15.6511 12.282 15.529 12.404C15.407 12.5261 15.407 12.7239 15.529 12.846L15.9907 13.3077C15.9578 13.3355 15.9259 13.3646 15.8952 13.3953C15.6001 13.6905 15.4375 14.0828 15.4375 14.5C15.4375 14.6172 15.4593 14.7294 15.4988 14.833C14.8724 14.9347 14.3701 15.41 14.2282 16.0222C13.8434 15.9053 13.5625 15.5474 13.5625 15.125C13.5625 14.9524 13.4226 14.8125 13.25 14.8125C13.0774 14.8125 12.9375 14.9524 12.9375 15.125C12.9375 15.8796 13.4752 16.5109 14.1875 16.6561V17.3125H12.625C12.4524 17.3125 12.3125 17.4524 12.3125 17.625C12.3125 17.7976 12.4524 17.9375 12.625 17.9375H14.1875V18.5939C13.4752 18.7391 12.9375 19.3704 12.9375 20.125C12.9375 20.2976 13.0774 20.4375 13.25 20.4375C13.4226 20.4375 13.5625 20.2976 13.5625 20.125C13.5625 19.7092 13.8347 19.3559 14.2102 19.2335C14.3869 20.6157 15.5706 21.6875 17 21.6875C18.4294 21.6875 19.6131 20.6157 19.7898 19.2335C20.1653 19.3559 20.4375 19.7092 20.4375 20.125C20.4375 20.2976 20.5774 20.4375 20.75 20.4375C20.9226 20.4375 21.0625 20.2976 21.0625 20.125C21.0625 19.3704 20.5248 18.7391 19.8125 18.5939V17.9375H21.375C21.5476 17.9375 21.6875 17.7976 21.6875 17.625C21.6875 17.4524 21.5476 17.3125 21.375 17.3125ZM16.3372 13.8373C16.4179 13.7565 16.5111 13.692 16.6149 13.6452C16.7356 13.5903 16.8652 13.5625 17 13.5625C17.1348 13.5625 17.2644 13.5903 17.3858 13.6454C17.4889 13.692 17.5821 13.7565 17.6628 13.8372C17.8399 14.0144 17.9375 14.2498 17.9375 14.5C17.9375 14.5834 17.905 14.6618 17.8459 14.7209C17.7868 14.7799 17.7084 14.8125 17.625 14.8125H16.375C16.2027 14.8125 16.0625 14.6723 16.0625 14.5C16.0625 14.2498 16.1601 14.0144 16.3372 13.8373ZM19.1875 18.875C19.1875 19.9751 18.3712 20.8877 17.3125 21.0398V18.25C17.3125 18.0774 17.1726 17.9375 17 17.9375C16.8274 17.9375 16.6875 18.0774 16.6875 18.25V21.0398C15.6288 20.8877 14.8125 19.9751 14.8125 18.875V16.375C14.8125 15.8581 15.2331 15.4375 15.75 15.4375H16.375H16.6875V15.75C16.6875 15.9226 16.8274 16.0625 17 16.0625C17.1726 16.0625 17.3125 15.9226 17.3125 15.75V15.4375H17.625H18.25C18.7669 15.4375 19.1875 15.8581 19.1875 16.375V18.875Z" fill="white"/>
</svg>
