<svg width="17" height="15" viewBox="0 0 17 15" fill="none" xmlns="http://www.w3.org/2000/svg">
<path d="M14.8315 0H13.0337C12.2697 0 11.6854 0.58427 11.6854 1.34831V1.39325L3.95505 4.49438C3.77528 3.95506 3.2809 3.59551 2.69663 3.59551H1.34831C0.58427 3.59551 0 4.17978 0 4.94382V9.4382C0 10.2022 0.58427 10.7865 1.34831 10.7865H2.69663C3.2809 10.7865 3.77528 10.427 3.95505 9.88764L4.80899 10.2472C4.76405 10.3371 4.7191 10.427 4.7191 10.5618C4.7191 11.8202 5.34831 12.854 6.42696 13.3933C6.83145 13.5731 7.28089 13.7079 7.68538 13.7079C8.44943 13.7079 9.21349 13.4382 9.84271 12.8539C9.9326 12.764 9.97752 12.6742 10.0225 12.5843L11.6854 13.3034C11.8202 13.9326 12.3596 14.382 12.9888 14.382H14.7865C15.5506 14.382 16.1348 13.7978 16.1348 13.0337V1.34831C16.1798 0.58427 15.5955 0 14.8315 0ZM2.69663 9.4382H1.34831V4.94382H2.69663V9.4382ZM11.6854 11.9101L4.04494 8.49439V5.88763L11.6854 2.78649V11.9101ZM7.05618 12.2247C6.33708 11.8651 6.15729 11.2809 6.11235 10.8315L8.80898 12C8.3146 12.3146 7.64045 12.4944 7.05618 12.2247ZM14.8315 13.0337H13.0337V1.34831H14.8315V13.0337Z" fill="black"/>
</svg>
