<svg width="20" height="15" viewBox="0 0 20 15" fill="none" xmlns="http://www.w3.org/2000/svg">
<path d="M19.3259 6.29214H17.9776C17.6181 6.29214 17.3035 6.60675 17.3035 6.9663C17.3035 7.32585 17.6181 7.64046 17.9776 7.64046H19.3259C19.6855 7.64046 20.0001 7.32585 20.0001 6.9663C20.0001 6.60675 19.6855 6.29214 19.3259 6.29214Z" fill="#363535"/>
<path d="M19.2361 10.2472L17.8877 9.34832C17.5731 9.1236 17.1686 9.21345 16.9439 9.52806C16.7192 9.84266 16.8091 10.2472 17.1237 10.4719L18.472 11.3708C18.6068 11.4607 18.6967 11.5056 18.8316 11.5056C19.0563 11.5056 19.281 11.4157 19.3709 11.191C19.6405 10.8315 19.5507 10.427 19.2361 10.2472Z" fill="#363535"/>
<path d="M17.5282 4.67418C17.663 4.67418 17.7978 4.62921 17.8877 4.58426L19.281 3.68539C19.5956 3.50561 19.6855 3.05618 19.5057 2.74158C19.3259 2.42697 18.8765 2.33708 18.5619 2.51686L17.1686 3.41573C16.854 3.59551 16.7641 4.04494 16.9439 4.35954C17.0788 4.58426 17.3035 4.67418 17.5282 4.67418Z" fill="#363535"/>
<path d="M14.8315 0H13.0337C12.2697 0 11.6854 0.58427 11.6854 1.34831V1.39325L3.95505 4.49438C3.77528 3.95506 3.2809 3.59551 2.69663 3.59551H1.34831C0.58427 3.59551 0 4.17978 0 4.94382V9.4382C0 10.2022 0.58427 10.7865 1.34831 10.7865H2.69663C3.2809 10.7865 3.77528 10.427 3.95505 9.88764L4.80899 10.2472C4.76405 10.3371 4.7191 10.427 4.7191 10.5618C4.7191 11.8202 5.34831 12.854 6.42696 13.3933C6.83145 13.5731 7.28089 13.7079 7.68538 13.7079C8.44943 13.7079 9.21349 13.4382 9.84271 12.8539C9.9326 12.764 9.97752 12.6742 10.0225 12.5843L11.6854 13.3034C11.8202 13.9326 12.3596 14.382 12.9888 14.382H14.7865C15.5506 14.382 16.1348 13.7978 16.1348 13.0337V1.34831C16.1798 0.58427 15.5955 0 14.8315 0ZM2.69663 9.4382H1.34831V4.94382H2.69663V9.4382ZM11.6854 11.9101L4.04494 8.49439V5.88763L11.6854 2.78649V11.9101ZM7.05618 12.2247C6.33708 11.8651 6.15729 11.2809 6.11235 10.8315L8.80898 12C8.3146 12.3146 7.64045 12.4944 7.05618 12.2247ZM14.8315 13.0337H13.0337V1.34831H14.8315V13.0337Z" fill="#363535"/>
</svg>
