<svg width="16" height="16" viewBox="0 0 16 16" fill="none" xmlns="http://www.w3.org/2000/svg">
<path d="M14.5938 2.37482H13.1875V1.90607C13.1875 1.13066 12.5567 0.499817 11.7813 0.499817H1.40625C0.630845 0.499817 0 1.13066 0 1.90607V9.40609C0 10.1815 0.630845 10.8123 1.40625 10.8123H2.81251V13.1561C2.81251 13.5743 3.31944 13.7808 3.61269 13.4875L4.41292 12.6873H9.71211L12.3873 15.3625C12.6807 15.6561 13.1875 15.45 13.1875 15.0311V12.6873H14.5937C15.3692 12.6873 16 12.0565 16 11.2811V3.78107C16 3.00567 15.3692 2.37482 14.5938 2.37482ZM3.75001 12.0244V10.3436C3.75001 10.0847 3.54013 9.87484 3.28126 9.87484H1.40625C1.14778 9.87484 0.937502 9.66455 0.937502 9.40609V1.90607C0.937502 1.6476 1.14778 1.43732 1.40625 1.43732H11.7813C12.0397 1.43732 12.25 1.6476 12.25 1.90607V9.40609C12.25 9.66455 12.0397 9.87484 11.7813 9.87484H6.09376C5.96942 9.87484 5.85023 9.92424 5.76232 10.0121L3.75001 12.0244ZM15.0625 11.2811C15.0625 11.5396 14.8522 11.7498 14.5938 11.7498H12.7188C12.4599 11.7498 12.25 11.9597 12.25 12.2186V13.8994L10.2377 11.8872C10.1498 11.7992 10.0306 11.7498 9.90627 11.7498H5.35042L6.28792 10.8123H11.7813C12.5567 10.8123 13.1875 10.1815 13.1875 9.40609V3.31232H14.5938C14.8522 3.31232 15.0625 3.5226 15.0625 3.78107V11.2811Z" fill="#F5EBFF"/>
<path d="M8.96876 3.31232H2.34375C2.08488 3.31232 1.875 3.52219 1.875 3.78107C1.875 4.03994 2.08488 4.24982 2.34375 4.24982H8.96876C9.22764 4.24982 9.43751 4.03994 9.43751 3.78107C9.43751 3.52219 9.22764 3.31232 8.96876 3.31232Z" fill="#F5EBFF"/>
<path d="M10.8438 5.18732H2.34375C2.08488 5.18732 1.875 5.39719 1.875 5.65607C1.875 5.91494 2.08488 6.12482 2.34375 6.12482H10.8438C11.1026 6.12482 11.3125 5.91494 11.3125 5.65607C11.3125 5.39719 11.1026 5.18732 10.8438 5.18732Z" fill="#F5EBFF"/>
<path d="M7.09376 7.06232H2.34375C2.08488 7.06232 1.875 7.27219 1.875 7.53107C1.875 7.78994 2.08488 7.99982 2.34375 7.99982H7.09376C7.35264 7.99982 7.56251 7.78994 7.56251 7.53107C7.56251 7.27219 7.35264 7.06232 7.09376 7.06232Z" fill="#F5EBFF"/>
</svg>
