<svg width="10" height="10" viewBox="0 0 10 10" fill="none" xmlns="http://www.w3.org/2000/svg">
<path d="M5.73956 5.0081L9.82314 0.826582C10.0161 0.632093 10.0161 0.340357 9.82314 0.145867C9.63021 -0.0486224 9.34083 -0.0486224 9.14791 0.145867L5.0643 4.32739L0.819928 0.145867C0.627002 -0.0486224 0.33762 -0.0486224 0.144694 0.145867C-0.0482315 0.340357 -0.0482315 0.632093 0.144694 0.826582L4.38907 5.0081L0.144694 9.18963C-0.0482315 9.38412 -0.0482315 9.67585 0.144694 9.87034C0.241157 9.96759 0.369767 10 0.498384 10C0.627002 10 0.755631 9.96759 0.852094 9.87034L5.09647 5.68882L9.18005 9.87034C9.27652 9.96759 9.40514 10 9.53376 10C9.66238 10 9.791 9.96759 9.85531 9.87034C10.0482 9.67585 10.0482 9.38412 9.85531 9.18963L5.73956 5.0081Z" fill="#EB5757"/>
</svg>
