<svg width="30" height="30" viewBox="0 0 30 30" fill="none" xmlns="http://www.w3.org/2000/svg">
<rect width="30" height="30" rx="3" fill="#D4145A"/>
<path d="M20.5 9.24138H18.8333H17.6333C17.1667 7.89655 15.9333 7 14.5 7C13.0667 7 11.8333 7.89655 11.3667 9.24138H9.83333H8.5C8.23333 9.24138 8 9.48276 8 9.75862C8 10.0345 8.23333 10.2759 8.5 10.2759H8.83333V20.9655C8.83333 21.5517 9.26667 22 9.83333 22H18.8333C19.4 22 19.8333 21.5517 19.8333 20.9655V10.2759H20.5C20.7667 10.2759 21 10.0345 21 9.75862C21 9.48276 20.7667 9.24138 20.5 9.24138ZM14.5 8.03448C15.4 8.03448 16.2 8.37931 16.6 9.24138H12.4333C12.8 8.37931 13.6 8.03448 14.5 8.03448ZM18.8333 20.9655H17.5V15.1034C17.5 14.8276 17.2667 14.5862 17 14.5862C16.7333 14.5862 16.5 14.8276 16.5 15.1034V20.9655H14.8333V13.0345C14.8333 12.7586 14.6 12.5172 14.3333 12.5172C14.0667 12.5172 13.8333 12.7586 13.8333 13.0345V20.9655H12.1667V15.1034C12.1667 14.8276 11.9333 14.5862 11.6667 14.5862C11.4 14.5862 11.1667 14.8276 11.1667 15.1034V20.9655H9.83333V10.2759H18.8333V20.9655Z" fill="white"/>
</svg>
