<svg width="16" height="16" viewBox="0 0 16 16" fill="none" xmlns="http://www.w3.org/2000/svg">
<path d="M7.99994 0C10.2068 0 12.2298 0.873551 13.6551 2.34481C15.1264 3.7701 16 5.79308 16 7.99997C16 10.2069 15.1264 12.2298 13.6551 13.6551C12.2298 15.1264 10.2068 16 7.99994 16C5.79305 16 3.77015 15.1264 2.34487 13.6551C0.873607 12.2298 0 10.2069 0 7.99997C0 5.79308 0.873607 3.7701 2.34487 2.34481C3.77015 0.873551 5.79305 0 7.99994 0ZM10.5287 9.28732C10.5287 8.78158 10.3907 8.3678 10.0689 8.04597C9.74707 7.72413 9.19539 7.49423 8.50574 7.31032V5.51723C8.91953 5.60919 9.37932 5.79309 9.79311 6.11493L10.2988 5.24136C10.0229 5.05745 9.74716 4.87354 9.4713 4.78159C9.19543 4.64365 8.87355 4.59768 8.50574 4.5517V3.99997H7.67813V4.5517C7.35629 4.5517 7.12638 4.64367 6.85052 4.73562C6.62064 4.82757 6.43677 4.9655 6.20689 5.10343C6.02298 5.28734 5.88509 5.47125 5.79314 5.65516C5.70119 5.88504 5.65519 6.11493 5.65519 6.34481C5.65519 6.62068 5.70119 6.85055 5.79314 7.08043C5.88509 7.26434 5.97696 7.44827 6.16087 7.5862C6.34477 7.7701 6.52875 7.90802 6.80461 7.99997C7.08047 8.09193 7.35629 8.22986 7.67813 8.32182V10.1609C7.35629 10.1149 7.08047 10.023 6.80461 9.88504C6.52875 9.74711 6.25286 9.56319 5.977 9.37928L5.37928 10.2529C5.70112 10.5287 6.06896 10.7126 6.43677 10.8965C6.80459 11.0344 7.21843 11.1724 7.63222 11.2184V12.1839H8.45971V11.2644C8.78155 11.2644 9.05744 11.1724 9.28732 11.0804C9.56318 10.9885 9.74716 10.8506 9.93107 10.7126C10.115 10.5287 10.2529 10.3448 10.3448 10.1609C10.5287 9.79308 10.5287 9.56318 10.5287 9.28732ZM7.72415 7.12643C7.35633 7.03447 7.1264 6.89652 6.98847 6.75859C6.85054 6.62066 6.80461 6.43676 6.80461 6.25285C6.80461 6.06895 6.85059 5.83907 7.0345 5.74712C7.17243 5.60919 7.40231 5.51722 7.72415 5.47124V7.12643ZM9.42527 9.37928C9.42527 9.60917 9.33332 9.79308 9.19539 9.93101C9.01148 10.0689 8.7816 10.1609 8.50574 10.2069V8.50574C8.68964 8.55171 8.82757 8.59767 8.9655 8.68963C9.05746 8.7356 9.14946 8.82757 9.24141 8.87355C9.28739 8.9655 9.33327 9.01148 9.37925 9.10343C9.42523 9.14941 9.42527 9.24135 9.42527 9.37928ZM7.99994 1.60919C9.79305 1.60919 11.4023 2.34481 12.5517 3.49424C13.7012 4.64366 14.4367 6.25286 14.4367 8.04597C14.4367 9.79309 13.7012 11.4482 12.5517 12.5977C11.4023 13.7931 9.79305 14.4827 7.99994 14.4827C6.25282 14.4827 4.59769 13.7471 3.44827 12.5977C2.25287 11.4482 1.56317 9.83907 1.56317 8.04597C1.56317 6.25286 2.29885 4.64366 3.44827 3.49424C4.59769 2.29884 6.25282 1.60919 7.99994 1.60919ZM11.908 4.09193C10.8965 3.08044 9.51718 2.48274 7.99994 2.48274C6.4827 2.48274 5.1034 3.08044 4.0919 4.09193C3.08041 5.10342 2.48271 6.48273 2.48271 7.99997C2.48271 9.51721 3.08041 10.8965 4.0919 11.908C5.1034 12.9195 6.4827 13.5172 7.99994 13.5172C9.56316 13.5172 10.9425 12.9195 11.908 11.908C12.9195 10.8965 13.5172 9.51721 13.5172 7.99997C13.5172 6.48273 12.9195 5.10342 11.908 4.09193ZM13.0574 2.9885C11.7701 1.70115 10.0229 0.873545 7.99994 0.873545C6.02293 0.873545 4.27586 1.70115 2.9885 2.9885C1.70115 4.27586 0.873517 6.06896 0.873517 8.04597C0.873517 10.023 1.70115 11.7701 2.9885 13.0574C4.27586 14.3448 6.02293 15.1724 7.99994 15.1724C9.97695 15.1724 11.7701 14.3448 13.0574 13.0574C14.3448 11.7701 15.1724 10.023 15.1724 8.04597C15.1264 6.06896 14.3448 4.27586 13.0574 2.9885Z" fill="#E0EEFF"/>
</svg>
