<svg width="20" height="24" viewBox="0 0 20 24" fill="none" xmlns="http://www.w3.org/2000/svg">
<path d="M18.5756 14.7775L16.0831 12.2849C15.727 11.9288 15.1928 11.9288 14.8368 12.2849C14.4807 12.641 14.4807 13.1751 14.8368 13.5312L17.3293 16.0238C17.9228 16.6172 18.2196 17.3888 18.2196 18.2196C18.2196 19.0505 17.9228 19.822 17.3293 20.4155C16.7359 21.0089 15.9644 21.3057 15.1335 21.3057C14.3026 21.3057 13.5311 21.0089 12.9377 20.4155L8.24923 15.727C7.06229 14.5401 7.06229 12.5223 8.24923 11.3354C8.72401 10.8606 9.31748 10.5638 9.9703 10.4451C10.4451 10.3858 10.8012 9.91102 10.7418 9.43624C10.6825 8.96146 10.2077 8.60539 9.73291 8.66474C8.72401 8.84278 7.77446 9.31755 7.00294 10.0297C5.10384 11.9288 5.10384 15.0149 7.00294 16.914L11.6914 21.6024C12.6409 22.552 13.8279 23.0268 15.1335 23.0268C16.4391 23.0268 17.6854 22.4926 18.5756 21.6024C19.4658 20.7122 20 19.4659 20 18.1603C20 16.8546 19.5252 15.727 18.5756 14.7775Z" fill="#363535"/>
<path d="M2.67062 7.00299C2.07715 6.40952 1.78041 5.638 1.78041 4.80714C1.78041 3.97628 2.07715 3.20476 2.67062 2.61129C3.26409 2.01782 4.0356 1.72108 4.86646 1.72108C5.69732 1.72108 6.46884 2.01782 7.06231 2.61129L11.7507 7.29973C12.9377 8.48667 12.9377 10.5045 11.7507 11.6914C11.276 12.1662 10.6825 12.4629 10.0297 12.5816C9.55489 12.641 9.19881 13.1157 9.25816 13.5905C9.31751 14.0059 9.73294 14.362 10.1484 14.362C10.2077 14.362 10.2671 14.362 10.2671 14.362C11.276 14.184 12.2255 13.7092 12.997 12.997C14.8961 11.0979 14.8961 8.01189 12.997 6.11279L8.3086 1.42435C7.35905 0.474792 6.1721 0 4.86646 0C3.56083 0 2.31454 0.534139 1.42433 1.42435C0.474774 2.3739 0 3.56084 0 4.86647C0 6.17211 0.534121 7.41839 1.42433 8.3086L3.91692 10.8012C4.273 11.1573 4.80712 11.1573 5.1632 10.8012C5.51928 10.4451 5.51928 9.911 5.1632 9.55491L2.67062 7.00299Z" fill="#363535"/>
</svg>
