<svg width="16" height="16" viewBox="0 0 16 16" fill="none" xmlns="http://www.w3.org/2000/svg">
<g clip-path="url(#clip0)">
<path d="M5.07654 13.5752C4.34444 14.3078 3.15676 14.3078 2.42463 13.5752C1.70354 12.8546 1.69204 11.6924 2.39063 10.9578L6.34266 7.00579C5.12041 6.67898 3.76513 6.97979 2.78804 7.90904L1.03082 9.66626C-0.3664 11.1355 -0.3434 13.4598 1.09882 14.9011C2.56304 16.3663 4.93841 16.3663 6.40263 14.9011L8.02282 13.2809C9.00485 12.2995 9.3286 10.9088 8.99426 9.65754L5.07654 13.5752Z" fill="#FFDAE8"/>
<path d="M14.9008 1.09906C13.4596 -0.343156 11.1352 -0.366156 9.666 1.03106L7.90878 2.78828C6.97956 3.76541 6.67875 5.12069 7.00553 6.34291L10.9576 2.39088C11.6922 1.69228 12.8543 1.70378 13.575 2.42488C14.3076 3.157 14.3076 4.34466 13.575 5.07678L9.65725 8.9945C10.9086 9.32884 12.2992 9.00513 13.2806 8.02306L14.9008 6.40287C16.366 4.93866 16.366 2.56328 14.9008 1.09906Z" fill="#FFDAE8"/>
<path d="M5.1488 10.8509C5.51486 11.2172 6.10871 11.2172 6.47474 10.8509L10.8505 6.47516C11.2168 6.1091 11.2168 5.51525 10.8505 5.14922C10.4901 4.78866 9.90905 4.78291 9.54177 5.13222L5.13177 9.54223C4.78249 9.90948 4.78824 10.4906 5.1488 10.8509Z" fill="#FFDAE8"/>
</g>
<defs>
<clipPath id="clip0">
<rect width="16" height="16" fill="white" transform="translate(-0.000244141)"/>
</clipPath>
</defs>
</svg>
