<svg width="16" height="16" viewBox="0 0 16 16" fill="none" xmlns="http://www.w3.org/2000/svg">
<path d="M7.548 2.71186C7.548 2.48587 7.72879 2.30509 7.99997 2.30509C8.22596 2.30509 8.40676 2.48587 8.40676 2.71186V7.59322H13.2881C13.5141 7.59322 13.7401 7.77401 13.7401 8.0452C13.7401 8.27119 13.5141 8.45198 13.2881 8.45198H8.40676V13.3333C8.40676 13.5593 8.22596 13.7401 7.99997 13.7401C7.72879 13.7401 7.548 13.5593 7.548 13.3333V8.45198H2.71186C2.44068 8.45198 2.25989 8.27119 2.25989 8.0452C2.25989 7.77401 2.44068 7.59322 2.71186 7.59322H7.548V2.71186ZM7.99997 0C10.2147 0 12.2034 0.90396 13.6497 2.35029C15.096 3.79661 16 5.78531 16 8C16 10.2147 15.096 12.2034 13.6497 13.6497C12.2034 15.096 10.2147 16 7.99997 16C5.78528 16 3.79659 15.096 2.35026 13.6497C0.903932 12.2034 0 10.2147 0 8C0 5.83051 0.858734 3.79661 2.35026 2.35029C3.79659 0.90396 5.78528 0 7.99997 0ZM13.0169 2.93785C11.7514 1.67232 9.94347 0.858768 7.99997 0.858768C6.01127 0.858768 4.24857 1.67232 2.98304 2.93785C1.7175 4.20339 0.903954 6.0113 0.903954 7.9548C0.903954 9.9435 1.7175 11.7062 2.98304 12.9717C4.24857 14.2373 6.01127 15.0508 7.99997 15.0508C9.94347 15.0508 11.7514 14.2373 13.0169 12.9717C14.2824 11.7062 15.096 9.9435 15.096 7.9548C15.096 6.0113 14.2824 4.24858 13.0169 2.93785Z" fill="#F5EBFF"/>
</svg>
