<svg width="20" height="24" viewBox="0 0 20 24" fill="none" xmlns="http://www.w3.org/2000/svg">
<path d="M19.9474 3.31578C19.6316 2.10526 17.9474 0 10 0C6.26316 0 3.52632 0.421046 1.94737 1.21052C0.157901 2.10526 0 3.31579 0 3.68421V10.6842C0 15.0526 2.36843 19.1053 6.1579 21.2105L9.21053 22.9474C9.47368 23.1053 9.73684 23.1579 10 23.1579C10.2632 23.1579 10.5263 23.1053 10.7895 22.9474L13.8421 21.2105C17.6316 19.0526 20 15.0526 20 10.6842V3.68421C20 3.57895 20 3.42105 19.9474 3.31578ZM18.4211 10.6842C18.4211 14.4737 16.3684 18 13.0526 19.8421L10 21.5789L6.94738 19.8421C3.63159 18 1.57895 14.4737 1.57895 10.6842V3.68421C1.57895 3.68421 1.57895 1.57895 10 1.57895C17.8947 1.57895 18.4211 3.68421 18.4211 3.68421V10.6842Z" fill="black"/>
<path d="M14.6843 7.31581L9.47374 12.5263L6.36848 9.42107C6.05269 9.10528 5.579 9.10528 5.26321 9.42107C4.94742 9.73686 4.94742 10.2105 5.26321 10.5263L8.94742 14.2105C9.10531 14.3684 9.31584 14.4211 9.52637 14.4211C9.7369 14.4211 9.94743 14.3684 10.1053 14.2105L15.8948 8.42106C16.2106 8.10527 16.2106 7.6316 15.8948 7.31581C15.5264 7.05265 15 7.05265 14.6843 7.31581Z" fill="black"/>
</svg>
