<svg width="20" height="20" viewBox="0 0 20 20" fill="none" xmlns="http://www.w3.org/2000/svg">
<path d="M9.95436 6.3927C7.94523 6.3927 6.30139 8.03654 6.30139 10.0457C6.30139 12.0548 7.94523 13.6986 9.95436 13.6986C11.9635 13.6986 13.6073 12.0548 13.6073 10.0457C13.6073 8.03654 11.9635 6.3927 9.95436 6.3927ZM9.95436 12.3288C8.67582 12.3288 7.67125 11.3242 7.67125 10.0457C7.67125 8.76713 8.67582 7.76256 9.95436 7.76256C11.2329 7.76256 12.2375 8.76713 12.2375 10.0457C12.2375 11.3242 11.2329 12.3288 9.95436 12.3288Z" fill="black"/>
<path d="M18.6301 7.30594H17.2146C17.169 7.16895 17.0776 6.9863 17.032 6.84932L18.0365 5.84475C18.3105 5.57077 18.4475 5.25115 18.4475 4.88585C18.4475 4.52056 18.3105 4.15524 18.0365 3.92693L16.1187 2.00914C15.8447 1.73517 15.4795 1.59817 15.1598 1.59817C14.7945 1.59817 14.4749 1.73517 14.2009 2.00914L13.1963 3.01369C13.0593 2.96803 12.8767 2.87672 12.7397 2.83106V1.36986C12.7397 0.593607 12.1461 0 11.3698 0H8.63012C7.85387 0 7.26026 0.593607 7.26026 1.36986V2.78538C7.12327 2.83104 6.94062 2.92238 6.80364 2.96804L5.79909 1.96347C5.52512 1.68949 5.15981 1.55252 4.84017 1.55252C4.47488 1.55252 4.15525 1.68949 3.88128 1.96347L1.96347 3.88128C1.68949 4.15525 1.5525 4.47488 1.5525 4.84017C1.5525 5.20547 1.68949 5.57078 1.96347 5.79909L2.96804 6.80367C2.92238 6.94065 2.83104 7.1233 2.78538 7.26029H1.36986C0.593607 7.26029 0 7.85389 0 8.63015V11.3699C0 12.1461 0.593607 12.7397 1.36986 12.7397H2.78538C2.83104 12.8767 2.92238 13.0594 2.96804 13.1964L1.96347 14.2009C1.68949 14.4749 1.5525 14.7945 1.5525 15.1598C1.5525 15.5251 1.68949 15.8904 1.96347 16.1187L3.88128 18.0365C4.15525 18.3105 4.52054 18.4475 4.84017 18.4475C5.20547 18.4475 5.52512 18.3105 5.79909 18.0365L6.80364 17.032C6.94062 17.0776 7.12327 17.169 7.26026 17.2146V18.6301C7.26026 19.4064 7.85387 20 8.63012 20H11.3698C12.1461 20 12.7397 19.4064 12.7397 18.6301V17.2146C12.8767 17.169 13.0593 17.0776 13.1963 17.032L14.2009 18.0365C14.4749 18.3105 14.8402 18.4475 15.1598 18.4475C15.5251 18.4475 15.8447 18.3105 16.1187 18.0365L18.0365 16.1187C18.3105 15.8447 18.4475 15.5251 18.4475 15.1598C18.4475 14.7945 18.3105 14.4292 18.0365 14.2009L17.032 13.242C17.0776 13.105 17.169 12.9224 17.2146 12.7854H18.6301C19.4064 12.7854 20 12.1918 20 11.4155V8.6758C20 7.89955 19.4064 7.30594 18.6301 7.30594ZM18.6301 11.4155H16.2101C16.0274 12.1461 15.7534 12.8767 15.3425 13.4703L17.0776 15.2055L15.1598 17.1233L13.4246 15.3881C12.7854 15.7991 12.1004 16.0731 11.3698 16.2557V18.6758H8.63012V16.2557C7.89953 16.0731 7.16894 15.7991 6.57533 15.3881L4.84017 17.1233L2.92236 15.2055L4.65754 13.4703C4.24658 12.8311 3.9726 12.1461 3.78995 11.4155H1.36986V8.6758H3.78995C3.9726 7.94521 4.24658 7.21461 4.65754 6.62101L2.92236 4.88585L4.84017 2.96804L6.57533 4.70319C7.2146 4.29223 7.89953 4.01828 8.63012 3.83563V1.36986H11.3698V3.78995C12.1004 3.9726 12.831 4.24658 13.4246 4.65754L15.1598 2.92239L17.0776 4.84017L15.3425 6.57536C15.7534 7.21463 16.0274 7.89956 16.2101 8.63015H18.6301V11.4155Z" fill="black"/>
</svg>
