<svg width="16" height="17" viewBox="0 0 16 17" fill="none" xmlns="http://www.w3.org/2000/svg">
<path d="M11.3216 4.02338C11.5088 4.30408 11.7427 4.538 11.9766 4.67835C12.2573 4.8187 12.538 4.91227 12.8655 4.91227C13.3333 4.91227 13.8012 4.72513 14.1287 4.39765C14.4561 4.07016 14.6433 3.60233 14.6433 3.13449C14.6433 2.66666 14.4561 2.19883 14.1287 1.87134C13.8012 1.54386 13.3333 1.35672 12.8655 1.35672C12.3976 1.35672 11.9298 1.54386 11.6023 1.87134C11.2749 2.19883 11.0877 2.66666 11.0877 3.13449C11.0877 3.27485 11.0877 3.46198 11.1345 3.55554C11.1813 3.74268 11.2281 3.92981 11.3216 4.02338ZM10.5263 5.23975L6.17546 7.62571C6.26903 7.90641 6.31578 8.18712 6.31578 8.5146C6.31578 8.84208 6.26903 9.12278 6.17546 9.40348L10.5263 11.7894C10.7134 11.5555 10.9942 11.3216 11.2749 11.1345C11.7427 10.8538 12.3041 10.7134 12.8655 10.7134C13.7544 10.7134 14.5497 11.0877 15.0643 11.6023C15.6257 12.1637 16 12.959 16 13.8479C16 14.7368 15.6257 15.4853 15.0643 16.0467C14.5029 16.6081 13.7076 16.9356 12.8655 16.9356C11.9766 16.9356 11.1813 16.6081 10.6667 16.0467C10.1053 15.4853 9.731 14.69 9.731 13.8479C9.731 13.5672 9.77776 13.3333 9.82454 13.0526V12.959L5.47371 10.5731C5.42692 10.6199 5.38012 10.6666 5.33333 10.7134C4.77193 11.2748 3.97663 11.6491 3.13453 11.6491C2.29243 11.6491 1.49707 11.2748 0.93567 10.7134C0.374268 10.152 0 9.3567 0 8.5146C0 7.6725 0.374268 6.83039 0.93567 6.26899C1.49707 5.70759 2.29243 5.38011 3.13453 5.38011C3.97663 5.38011 4.81871 5.75437 5.33333 6.26899C5.38012 6.31577 5.42692 6.36256 5.47371 6.40934L9.82454 4.02338V3.92981C9.77776 3.6959 9.731 3.4152 9.731 3.13449C9.731 2.24561 10.1053 1.45029 10.6667 0.93567C11.2281 0.374268 12.0234 0 12.8655 0C13.7544 0 14.5497 0.374268 15.0643 0.93567C15.6257 1.49707 16 2.29239 16 3.13449C16 4.02338 15.6257 4.8187 15.0643 5.33332C14.5029 5.89472 13.7076 6.26899 12.8655 6.26899C12.3041 6.26899 11.7427 6.12864 11.2749 5.84794C11.041 5.70759 10.7602 5.52045 10.5263 5.23975ZM14.1287 12.6316C13.8012 12.3041 13.3333 12.1169 12.8655 12.1169C12.538 12.1169 12.2105 12.2105 11.9766 12.3508C11.6959 12.4912 11.5088 12.7251 11.3216 13.0058C11.2281 13.1462 11.1813 13.2865 11.1345 13.4269C11.1345 13.5672 11.0877 13.7076 11.0877 13.8479C11.0877 14.3158 11.2749 14.7836 11.6023 15.1111C11.9298 15.4386 12.3976 15.6257 12.8655 15.6257C13.3333 15.6257 13.8012 15.4386 14.1287 15.1111C14.4561 14.7836 14.6433 14.3625 14.6433 13.8479C14.6433 13.3801 14.4561 12.9123 14.1287 12.6316ZM4.44443 7.25145C4.11695 6.92396 3.64914 6.73682 3.1813 6.73682C2.71347 6.73682 2.24565 6.92396 1.91817 7.25145C1.59069 7.57893 1.40351 8.04676 1.40351 8.5146C1.40351 8.98244 1.59069 9.45027 1.91817 9.77775C2.24565 10.1052 2.66668 10.2924 3.1813 10.2924C3.64914 10.2924 4.11695 10.1052 4.44443 9.77775C4.77192 9.45027 4.9591 9.02922 4.9591 8.5146C4.9591 8.04676 4.72514 7.57893 4.44443 7.25145Z" fill="#E0EEFF"/>
</svg>
