<svg width="20" height="20" viewBox="0 0 20 20" fill="none" xmlns="http://www.w3.org/2000/svg">
<path d="M10 0C4.5 0 0 4.5 0 10C0 15.5 4.5 20 10 20C15.5 20 20 15.5 20 10C20 4.5 15.5 0 10 0ZM1.36364 10C1.36364 5.22727 5.22727 1.36364 10 1.36364C14.7727 1.36364 18.6364 5.22727 18.6364 10C18.6364 12 17.9545 13.8636 16.7727 15.3182C15.8182 13.9091 14.3182 12.5909 12.4545 11.9545C13.1818 11.2273 13.6364 10.1364 13.6364 8.95454C13.6364 6.68181 12 4.86363 10 4.86363C8 4.86363 6.36364 6.68181 6.36364 8.95454C6.36364 10.1818 6.86364 11.2727 7.63637 12.0455C5.86364 12.6818 4.31818 13.9545 3.40909 15.5454C2.13636 14.0909 1.36364 12.1364 1.36364 10ZM10.2273 11.5909C10 11.5909 9.72727 11.5909 9.5 11.6364C8.5 11.3636 7.72727 10.2727 7.72727 8.99999C7.72727 7.49999 8.72727 6.27272 10 6.27272C11.2727 6.27272 12.2727 7.49999 12.2727 8.99999C12.2727 10.2727 11.5455 11.3182 10.5909 11.6364C10.4545 11.6364 10.3636 11.5909 10.2273 11.5909ZM4.40909 16.5909C5.27273 14.8182 7.18182 13.3182 9.40909 13.0454C9.59091 13.0909 9.77273 13.0909 10 13.0909C10.2727 13.0909 10.5 13.0454 10.7727 13C12.9545 13.2273 14.8636 14.7273 15.8636 16.3636C14.3182 17.7727 12.2727 18.6364 10.0455 18.6364C7.86364 18.6364 5.90909 17.8636 4.40909 16.5909Z" fill="black"/>
</svg>
