<svg width="34" height="34" viewBox="0 0 34 34" fill="none" xmlns="http://www.w3.org/2000/svg">
<circle cx="17" cy="17" r="17" fill="#E24C4B"/>
<path d="M24.0441 19.8367C23.4173 19.2099 22.5972 18.8916 21.774 18.8812C21.7195 18.823 21.6643 18.7654 21.6077 18.7087C20.6533 17.7544 19.4838 17.0936 18.2085 16.7713C19.5568 16.0991 20.4852 14.7059 20.4852 13.0998C20.4853 10.8392 18.6461 9 16.3854 9C14.1248 9 12.2855 10.8392 12.2855 13.0999C12.2855 14.706 13.214 16.0991 14.5622 16.7713C13.287 17.0937 12.1174 17.7545 11.1631 18.7088C9.76824 20.1037 9 21.9583 9 23.9311C9 24.1117 9.14646 24.2581 9.32703 24.2581H19.2354C19.2939 24.3273 19.3556 24.3947 19.4208 24.4598C20.0581 25.0971 20.8952 25.4158 21.7324 25.4158C22.5696 25.4158 23.4067 25.0971 24.0441 24.4598C25.3186 23.1853 25.3186 21.1113 24.0441 19.8367ZM12.9396 13.0999C12.9396 11.1998 14.4854 9.65407 16.3854 9.65407C18.2855 9.65407 19.8312 11.1998 19.8312 13.0999C19.8312 14.9999 18.2854 16.5457 16.3854 16.5457C14.4854 16.5457 12.9396 14.9999 12.9396 13.0999ZM9.66196 23.604C9.8331 20.0437 12.7834 17.1997 16.3854 17.1997C18.1396 17.1997 19.7388 17.8748 20.9381 18.9781C20.3817 19.1165 19.8549 19.4026 19.4208 19.8367C18.4033 20.8542 18.1982 22.381 18.8052 23.604L9.66196 23.604ZM19.8833 20.2992C20.8182 19.3643 22.2903 19.2873 23.3145 20.0668L19.651 23.7304C18.8715 22.7062 18.9485 21.2341 19.8833 20.2992ZM23.5816 23.9974C22.634 24.945 21.1344 25.0113 20.1089 24.1976L23.7818 20.5247C24.5954 21.5503 24.5291 23.0498 23.5816 23.9974Z" fill="white"/>
</svg>
