<svg width="16" height="16" viewBox="0 0 16 16" fill="none" xmlns="http://www.w3.org/2000/svg">
<path d="M7.99992 9.01202C3.19252 9.01202 0.544922 11.2863 0.544922 15.416C0.544922 15.7385 0.806328 15.9999 1.12886 15.9999H14.871C15.1935 15.9999 15.4549 15.7385 15.4549 15.416C15.4549 11.2865 12.8073 9.01202 7.99992 9.01202ZM1.73405 14.832C1.96373 11.7443 4.06883 10.1799 7.99992 10.1799C11.931 10.1799 14.0361 11.7443 14.266 14.832H1.73405Z" fill="#FFF2F7"/>
<path d="M7.99994 0C5.79166 0 4.12646 1.69869 4.12646 3.95116C4.12646 6.26959 5.86409 8.15553 7.99994 8.15553C10.1358 8.15553 11.8734 6.26959 11.8734 3.95134C11.8734 1.69869 10.2082 0 7.99994 0ZM7.99994 6.98784C6.50797 6.98784 5.29434 5.62569 5.29434 3.95134C5.29434 2.3385 6.43225 1.16788 7.99994 1.16788C9.54254 1.16788 10.7055 2.36438 10.7055 3.95134C10.7055 5.62569 9.49191 6.98784 7.99994 6.98784Z" fill="#FFF2F7"/>
</svg>
