<svg width="34" height="34" viewBox="0 0 34 34" fill="none" xmlns="http://www.w3.org/2000/svg">
<circle cx="17" cy="17" r="17" fill="#E24C4B"/>
<g clip-path="url(#clip0)">
<path d="M24.8082 22.0121L18.31 10.4767C17.7559 9.46921 16.2447 9.46921 15.6906 10.4767L9.19249 22.0121C8.6384 23.0196 9.34362 24.2789 10.5022 24.2789H23.4481C24.657 24.2285 25.3622 23.0196 24.8082 22.0121Z" fill="white"/>
<path d="M17.0001 11.2322L23.4982 22.7677H10.502L17.0001 11.2322Z" fill="#E24C4B"/>
<path d="M15.9423 16.5214L16.3453 19.1912C16.3957 19.4934 16.6475 19.7453 17.0002 19.7453C17.3024 19.7453 17.6046 19.4934 17.655 19.1912L18.058 16.5214C18.1587 15.8666 17.655 15.3125 17.0002 15.3125C16.3453 15.3125 15.8919 15.8666 15.9423 16.5214Z" fill="white"/>
<path d="M17 21.5084C17.3338 21.5084 17.6045 21.2377 17.6045 20.9039C17.6045 20.57 17.3338 20.2994 17 20.2994C16.6661 20.2994 16.3955 20.57 16.3955 20.9039C16.3955 21.2377 16.6661 21.5084 17 21.5084Z" fill="white"/>
</g>
<defs>
<clipPath id="clip0">
<rect width="16" height="16" fill="white" transform="translate(9 9)"/>
</clipPath>
</defs>
</svg>
